<svg id="Layer_1" data-name="Layer 1" xmlns="http://www.w3.org/2000/svg" viewBox="0 0 512 512"><title>compass-glyph</title><path d="M302.26,256.17c0,26-19.93,46.25-46.26,46.25s-46.56-20.24-46.56-46.25c0-24.42,20.22-44.33,46.56-44.33s46.26,19.92,46.26,44.33ZM455.46,99.1c18,22.16,32.12,48.18,42.4,74.51,8,26,14.14,54.28,14.14,82.56,0,34-8,66.15-20.24,96.35-11.89,30.19-32.12,58.46-54.29,80.62a236.89,236.89,0,0,1-84.8,54.29c-30.18,12.2-62.62,18.3-96.69,18.3-30.18,0-58.44-4.18-84.8-14.13-28.26-8-52.34-22.16-74.51-40.47l-6.1-3.86,6.1-4.18,10-5.78,2.24-2.25,3.86,2.25c18.3,16.06,42.4,27.94,66.48,36,24.42,8.35,50.42,12.21,76.76,12.21,32.13,0,62.33-6.11,88.66-18,30.18-10.27,54.29-28.26,76.45-48.5,22.16-22.16,40.46-46.25,50.42-74.52a214.38,214.38,0,0,0,18.32-88.32,230.58,230.58,0,0,0-12.22-74.53,209.56,209.56,0,0,0-36.28-66.48l-3.86-2.25,3.86-3.86,6.1-8,3.85-6.1ZM256,6.27c30.2,0,58.46,4.18,84.49,14.13a302.7,302.7,0,0,1,74.83,40.15l5.79,4.17-5.79,4.18L405,75l-1.92,1.93L398.94,75c-19.93-14.46-42.4-26.34-66.5-36.29A242.39,242.39,0,0,0,256,26.5c-32.44,0-62.62,6.11-88.64,18C137.16,56.7,110.83,72.76,90.59,94.92c-22.18,20.24-40.17,46.25-52.36,74.51-10.28,26-16.06,56.53-16.06,86.73,0,26,3.87,52,11.89,74.19a215.89,215.89,0,0,0,36.3,66.48L72.58,401l-2.23,1.92-5.79,10L60.38,419l-4.17-6.1a242.1,242.1,0,0,1-42.07-74.53C3.87,312.38,0,286.35,0,256.17c0-34.38,5.79-66.5,20.24-94.76,11.89-32.12,32.12-58.46,54.29-82.55,24.08-22.16,52.35-40.15,82.55-54.29C187.27,12.38,221.63,6.27,256,6.27Zm0,159.32c-50.42,0-92.82,40.15-92.82,90.59,0,8,0,13.81,1.94,19.91l-141,205.57L235.77,344.49c6.1,2.24,12.2,2.24,20.22,2.24,50.44,0,92.84-40.47,92.84-90.57,0-6.11-2.25-12.22-2.25-18.32l141-207.18L275.92,167.51c-5.79,0-13.81-1.92-19.93-1.92Z" fill="#5b5b5f" fill-rule="evenodd"/></svg>